<?xml version="1.0" standalone="no"?>
<!DOCTYPE svg PUBLIC "-//W3C//DTD SVG 20010904//EN"
 "http://www.w3.org/TR/2001/REC-SVG-20010904/DTD/svg10.dtd">
<svg version="1.0" xmlns="http://www.w3.org/2000/svg"
 width="512.000000pt" height="512.000000pt" viewBox="0 0 512.000000 512.000000"
 preserveAspectRatio="xMidYMid meet">
<metadata>
Created by potrace 1.14, written by Peter Selinger 2001-2017
</metadata>
<g transform="translate(0.000000,512.000000) scale(0.100000,-0.100000)"
fill="#000000" stroke="none">
<path d="M2325 4979 c-186 -23 -199 -26 -285 -45 -36 -9 -75 -18 -88 -20 -125
-25 -418 -143 -587 -237 -299 -167 -629 -472 -816 -754 -21 -32 -42 -62 -47
-68 -12 -16 -107 -186 -125 -226 -58 -125 -83 -187 -117 -287 -22 -62 -40
-116 -41 -120 -1 -4 -3 -11 -5 -17 -2 -5 -14 -62 -28 -125 -41 -193 -51 -287
-51 -515 0 -159 7 -288 19 -350 2 -11 7 -40 11 -65 33 -214 134 -514 238 -710
39 -73 110 -194 118 -200 3 -3 12 -16 19 -30 48 -92 305 -380 450 -506 222
-191 536 -365 830 -459 113 -36 307 -80 395 -90 22 -3 72 -9 110 -13 89 -12
367 -12 465 -1 126 14 150 18 285 44 71 13 277 76 370 111 205 80 458 226 635
369 79 63 249 228 330 320 189 213 364 527 463 830 27 83 71 260 81 330 10 65
15 98 22 135 3 19 7 127 9 240 3 183 0 235 -20 385 -40 297 -163 647 -318 900
-33 55 -124 191 -144 215 -6 8 -35 44 -64 80 -52 65 -242 259 -309 315 -19 17
-62 50 -95 75 -33 25 -62 47 -65 50 -32 35 -318 195 -460 258 -89 40 -297 108
-390 127 -8 2 -35 8 -60 13 -25 6 -63 13 -85 16 -22 4 -53 9 -70 11 -87 15
-127 17 -315 19 -113 2 -232 0 -265 -5z m390 -1603 c53 -24 114 -82 537 -504
533 -532 523 -520 516 -641 -6 -105 -58 -185 -149 -232 -58 -29 -166 -32 -224
-4 -26 12 -172 149 -425 402 -298 296 -391 383 -410 383 -20 0 -111 -85 -404
-379 -255 -255 -393 -386 -423 -401 -124 -62 -282 -11 -354 115 -35 60 -37
181 -4 244 32 62 952 980 1012 1010 64 32 110 40 193 37 56 -3 92 -11 135 -30z"/>
</g>
</svg>
