<svg width="512" height="512" viewBox="0 0 512 512" fill="none" xmlns="http://www.w3.org/2000/svg">
<g filter="url(#filter0_d_811_787)">
<path d="M256 13C121.771 13 13 121.8 13 256C13 390.209 121.771 499 256 499C390.2 499 499 390.209 499 256C499 121.8 390.2 13 256 13ZM369.4 306.847C358.842 317.394 341.756 317.394 331.232 306.847L259.829 235.46C257.716 233.347 254.303 233.347 252.194 235.46L180.773 306.847C170.211 317.394 153.125 317.394 142.601 306.847C132.069 296.315 132.069 279.222 142.601 268.675L229.278 181.998C244.021 167.266 267.985 167.266 282.728 181.998L369.401 268.675C379.929 279.222 379.929 296.319 369.401 306.847H369.4Z" fill="white"/>
</g>
<defs>
<filter id="filter0_d_811_787" x="9" y="13" width="494" height="494" filterUnits="userSpaceOnUse" color-interpolation-filters="sRGB">
<feFlood flood-opacity="0" result="BackgroundImageFix"/>
<feColorMatrix in="SourceAlpha" type="matrix" values="0 0 0 0 0 0 0 0 0 0 0 0 0 0 0 0 0 0 127 0" result="hardAlpha"/>
<feOffset dy="4"/>
<feGaussianBlur stdDeviation="2"/>
<feComposite in2="hardAlpha" operator="out"/>
<feColorMatrix type="matrix" values="0 0 0 0 0 0 0 0 0 0 0 0 0 0 0 0 0 0 0.25 0"/>
<feBlend mode="normal" in2="BackgroundImageFix" result="effect1_dropShadow_811_787"/>
<feBlend mode="normal" in="SourceGraphic" in2="effect1_dropShadow_811_787" result="shape"/>
</filter>
</defs>
</svg>
