<svg width="280" height="280" viewBox="0 0 280 280" fill="none" xmlns="http://www.w3.org/2000/svg">
<g clip-path="url(#clip0_3_19507)">
<path fill-rule="evenodd" clip-rule="evenodd" d="M91.1109 199.296C92.8201 198.686 94.4675 197.982 95.9685 196.946C100.295 193.725 103.116 188.876 105.782 184.282C109.537 177.601 112.212 170.481 114.061 163.054C114.856 159.863 115.126 156.164 116.931 153.335C121.023 147.411 133.023 148.178 139.395 149.218C143.662 149.973 144.544 154.751 145.514 158.286C146.321 161.223 146.849 164.193 147.292 167.203C148.347 167.897 149.538 168.461 150.673 168.952C163.045 172.747 165.22 179.783 169.945 190.651C177.927 206.448 199.584 212.633 202.855 231.329C204.963 243.671 198.969 255.283 192.79 265.544C187.035 276.751 179 282.131 166.205 279.483C154.204 276.79 142.67 272.284 130.88 268.803C125.17 267.398 119.468 263.745 113.462 265.019C101.084 267.8 88.3676 269.107 75.6833 268.746C57.8741 269.467 57.8768 252.367 59.7047 239.125C60.985 218.517 71.3752 205.285 91.1109 199.296V199.296Z" fill="#D08B5B"/>
<path fill-rule="evenodd" clip-rule="evenodd" d="M89.9203 229.115C88.4321 230.099 87.1805 231.592 86.1757 233.163C90.3704 232.726 94.5578 232.223 98.7359 231.65C98.1889 231.3 97.6368 230.958 97.0722 230.635C95.012 229.474 92.2207 227.593 89.9203 229.115ZM159.612 241.519C160.38 241.218 160.678 240.046 160.977 239.374C161.917 237.266 162.774 235.123 163.666 232.995C160.279 232.03 156.987 230.958 153.479 230.444C149.707 229.891 145.88 229.757 142.073 229.881C134.363 230.133 126.724 231.393 119.144 232.745C111.572 234.095 104.001 235.392 96.3768 236.41C88.9068 237.407 81.4132 238.137 73.9057 238.778C72.447 238.903 70.0149 239.427 68.8419 238.279C67.9131 237.37 67.8829 235.692 69.0452 234.953C69.7691 234.492 70.8179 234.485 71.645 234.379C72.6866 234.245 73.7323 234.156 74.7802 234.086C75.2071 234.058 75.634 234.032 76.0611 234.006C72.633 232.713 69.0527 232.008 65.3363 232.204C65.1261 233.482 64.1792 234.796 63.6609 235.849C62.7559 237.688 62.0505 239.549 61.5874 241.549C60.6194 245.729 60.5773 250.067 60.8507 254.33C61.1019 257.884 61.6413 261.816 64.4283 264.333C66.5385 266.239 69.5156 266.945 72.2776 267.167C75.4877 267.425 78.7475 267.15 81.9307 266.719C86.3954 266.115 90.8809 265.317 95.2579 264.246C103.735 262.173 111.861 258.875 119.357 254.403C123.013 252.222 126.502 249.769 130.208 247.671C133.984 245.533 138.003 243.875 142.222 242.845C146.944 241.693 151.88 241.201 156.734 241.485C157.576 241.534 158.793 241.84 159.612 241.519ZM165.084 239.379C164.588 240.99 164.208 242.829 163.149 244.183C162.1 245.524 160.517 245.997 158.878 246.117C156.901 246.26 154.901 246.168 152.919 246.242C148.856 246.393 144.848 247.053 140.964 248.264C137.344 249.393 133.984 251.154 130.747 253.107C127.753 254.913 124.848 256.853 121.854 258.653C122.651 259.019 123.439 259.414 124.231 259.758C125.892 260.48 127.564 261.177 129.243 261.856C132.555 263.195 135.88 264.501 139.24 265.715C146.014 268.162 152.9 270.3 159.868 272.121C163.192 272.99 166.563 274.005 170.015 274.149C173.077 274.277 175.913 273.411 178.382 271.59C183.504 267.813 187.579 262.361 190.873 256.983C192.83 253.788 194.538 250.431 195.95 246.96C196.665 245.204 197.313 243.422 197.896 241.619C198.17 240.772 198.429 239.921 198.675 239.066C198.783 238.689 198.886 238.312 198.989 237.935C193.751 236.336 188.452 234.892 183.028 234.091C180.132 233.663 177.198 233.447 174.27 233.478C172.817 233.494 171.365 233.572 169.92 233.722C169.142 233.803 168.367 233.907 167.595 234.036C167.276 234.089 166.949 234.167 166.62 234.225C166.118 235.946 165.612 237.666 165.084 239.379ZM56.8237 232.536C56.5415 231.965 56.4224 231.403 56.3212 230.781C56.2441 230.307 56.0394 229.639 56.2187 229.023C56.4195 228.334 56.9664 227.717 57.3591 227.128C57.7927 226.478 58.2259 225.828 58.6585 225.177C59.5239 223.875 60.3874 222.572 61.2495 221.268C64.77 215.944 68.2665 210.604 71.7686 205.268C74.8764 200.532 77.9319 195.754 81.1343 191.082C83.8727 187.087 86.8575 183.158 90.6058 180.051C95.3451 176.122 100.988 174.272 106.883 172.828C107.527 172.159 108.387 171.794 109.306 171.868C110.604 170.395 111.637 169.366 112.104 167.492C112.329 166.594 112.258 164.073 113.132 163.542C114.17 162.911 114.712 163.746 114.998 164.687C115.956 167.835 114.857 172.068 112.327 175.222C113.393 178.906 114.806 184.142 117.326 187.094C120.025 190.254 123.757 191.238 127.784 191.302C135.464 191.426 143.135 188.571 148.993 183.622C150.773 182.119 152.427 180.439 153.923 178.652C155.045 177.312 156.372 175.244 157.25 173.68C157.25 173.071 157.969 172.434 150.649 171.942C143.328 171.449 142.773 161.422 142.61 160.057C142.478 158.949 141.916 157.229 142.696 156.325C143.027 155.942 143.707 155.88 144.127 156.141C144.919 156.633 145.179 157.891 145.428 158.745C145.777 159.942 146.917 167.37 149.078 168.23C150.089 168.633 151.249 168.641 152.319 168.715C153.641 168.807 154.965 168.875 156.281 169.029C156.766 169.085 157.295 169.243 157.774 169.247C158.086 169.25 158.407 169.099 158.708 168.992C159.725 168.633 160.74 168.902 161.787 169.043C171.045 170.288 180.577 173.129 188.474 178.24C195.434 182.745 200.337 189.224 203.573 196.799C206.874 204.529 208.766 212.889 210.352 221.119C210.883 223.876 211.347 226.646 211.746 229.426C212.131 232.112 212.613 234.858 212.728 237.571C212.774 238.644 212.517 239.642 212.123 240.622C211.678 241.726 210.628 242.161 209.62 242.676C207.409 243.808 205.076 244.686 202.672 245.307C201.203 247.98 199.968 250.757 198.974 253.639C199.343 254.369 199.35 255.46 199.421 256.169C199.597 257.937 199.672 259.714 199.688 261.489C199.72 265.048 199.506 268.604 199.338 272.157C199.168 275.761 198.603 289.981 198.511 291.718C198.439 293.066 198.535 294.953 197.825 296.151C196.734 297.992 194.039 297.93 192.792 296.437C161.787 303.105 103.508 301.097 80.0367 297.742C76.9827 297.305 77.9417 297.789 77.165 297.018C76.5822 296.438 76.0863 295.445 75.9251 294.648C75.7097 293.583 76.0573 292.619 76.6667 291.758C77.3073 290.852 77.4241 289.385 77.662 288.308C78.2247 285.762 78.5044 274.58 78.7674 273.341C78.8492 272.955 78.9286 272.547 79.0242 272.138C74.7188 272.546 70.2326 272.546 66.1365 271.106C63.8139 270.289 61.6476 269.006 59.9802 267.174C57.9612 264.955 56.8379 262.162 56.2602 259.247C55.5149 255.488 55.3566 251.595 55.5031 247.773C55.7066 243.257 56.4553 238.678 58.3137 234.531C57.7021 233.963 57.1896 233.278 56.8237 232.536Z" fill="black"/>
<path fill-rule="evenodd" clip-rule="evenodd" d="M153.062 71.2216C140.685 70.5443 129.72 67.0582 121.008 74.8603C121.008 74.8603 106.915 64.309 104.563 68.3276C102.987 71.0204 105.173 74.6352 104.587 77.9579C100.766 84.4872 100.982 95.5387 100.766 98.1286C100.222 104.656 96.7923 129.221 96.7923 135.054C96.7923 138.032 99.2411 145.83 100.766 150.169C104.16 159.829 110.64 164.751 121.266 164.751C131.891 164.751 149.235 155.848 154.797 147.943C155.284 147.25 158.437 149.271 161.734 145.765C165.306 141.967 167.288 134.723 167.288 130.405C167.288 124.925 170.82 121.125 170.409 114.11C169.492 98.4454 166.305 71.9464 153.062 71.2216Z" fill="#D08B5B"/>
<path fill-rule="evenodd" clip-rule="evenodd" d="M104.551 68.2895C102.975 70.9823 105.16 74.5971 104.574 77.9198C103.1 80.4394 102.227 83.6325 101.698 86.7528L104.587 88.2899L105.656 88.447C122.988 91.0089 134.05 93.3144 138.842 95.3637C143.683 97.4338 149.558 104.705 156.467 117.176L156.677 117.556L158.046 126.864L164.322 128.793L167.276 130.197C167.348 124.808 170.804 121.014 170.397 114.072C169.479 98.4073 166.293 71.9083 153.049 71.1835C140.673 70.5062 129.708 67.0201 120.996 74.8222C111.6 67.788 106.118 65.6105 104.551 68.2895Z" fill="#9FD8E5"/>
<path fill-rule="evenodd" clip-rule="evenodd" d="M154.444 53.0092C154.283 52.9994 154.12 53.0073 153.957 53.0232C153.778 53.0311 153.6 53.0486 153.421 53.0842C152.512 53.2593 151.701 53.7417 151.072 54.421C151.054 54.4387 151.041 54.4586 151.025 54.4761C150.73 54.6986 150.457 54.9508 150.212 55.2184C150.169 55.1771 150.127 55.1359 150.082 55.0946C149.952 54.9802 149.817 54.8719 149.676 54.7697C149.084 54.261 148.39 53.8912 147.643 53.6808L147.541 53.6531C147.521 53.6472 147.501 53.6432 147.482 53.6393C146.951 53.4623 146.394 53.3717 145.832 53.3735C145.16 53.3518 144.487 53.4623 143.858 53.722C143.114 54.0313 142.465 54.5194 141.921 55.1064C141.564 55.3978 141.252 55.7185 140.922 56.0712C140.24 56.8015 139.702 57.656 139.362 58.5974C139.315 58.7293 139.274 58.865 139.237 59.0008C138.406 58.9046 137.571 58.8356 136.736 58.802C135.799 58.7451 134.863 58.7252 133.924 58.7569C131.337 58.8414 128.807 59.2984 126.358 60.1352C125.867 60.2807 125.39 60.4658 124.93 60.6942C124.21 60.9816 123.528 61.3479 122.886 61.7909L122.339 62.1162C122.064 62.2799 121.789 62.4458 121.523 62.6159C120.888 63.0237 120.287 63.4803 119.718 63.9725C119.117 64.4591 118.549 64.9887 118.009 65.5438C117.862 65.694 117.721 65.8462 117.581 65.9994C116.336 66.673 115.23 67.5354 114.198 68.564C113.38 68.0922 112.533 67.6646 111.659 67.2844C110.758 66.8925 109.613 66.4889 108.668 66.2233C107.819 65.985 106.981 65.8216 106.13 65.7013C105.743 65.6344 105.355 65.5812 104.964 65.5359L104.979 65.542V65.542C104.704 65.5123 104.431 65.4867 104.154 65.4631L104.162 65.4611V65.4611C104.044 65.4514 103.925 65.4414 103.807 65.4335L103.52 65.4101V65.4101C103.434 65.4022 103.308 65.6048 103.3 65.6757L103.29 65.7486V65.7486C103.225 65.8216 103.167 65.9023 103.125 65.9516C103.074 65.9474 103.023 65.9437 102.972 65.9415C102.819 65.9279 102.642 66.2014 102.552 66.3058L102.47 66.402C102.377 66.5142 102.284 66.6434 102.269 66.7842C102.169 67.6016 102.075 68.4205 101.988 69.2396C101.955 69.8598 101.988 70.4741 102.09 71.0825C102.167 71.6732 102.245 72.2639 102.324 72.8527C102.45 73.2663 102.573 73.6798 102.697 74.0931C102.746 74.2508 102.801 74.4062 102.854 74.5617C103.168 75.6006 103.537 76.6118 103.975 77.5918C103.655 77.9466 103.357 78.3144 103.079 78.6942C103.013 78.7626 102.946 78.8305 102.884 78.9014C102.866 78.874 102.841 78.8484 102.813 78.8344C102.719 78.7931 102.65 78.8423 102.591 78.9232C101.972 79.5157 101.523 80.207 101.244 80.9964L101.07 81.4081C101.041 81.4769 101.013 81.5458 100.984 81.6146C100.763 82.2134 100.592 82.8277 100.45 83.4497C100.324 83.9392 100.233 84.4354 100.174 84.9369C99.7503 86.365 99.4148 87.826 99.0984 89.2673C99.0485 89.4941 99.0721 89.6965 99.1445 89.869L98.9595 90.0498V90.0498L98.6434 90.3654C98.1124 90.8962 97.5706 91.4542 97.1762 92.0857C96.7676 92.7414 96.4671 93.4423 96.1332 94.1376L96.0613 94.2853V94.2853L95.9143 94.5814C95.7553 94.9048 95.679 95.0834 95.5381 95.4743C95.3044 96.1263 95.1787 96.7817 95.1198 97.473C95.0334 98.479 95.0451 99.5757 95.4851 100.511C95.4871 100.519 95.491 100.525 95.4949 100.531C95.6952 101.435 96.1902 102.273 96.9424 102.809C97.1035 102.961 97.2763 103.096 97.4609 103.205C97.904 103.465 98.3109 103.489 98.7946 103.368L98.8554 103.352C98.9163 103.336 98.9713 103.323 99.0243 103.311C98.9458 103.376 98.9065 103.453 99.0243 103.508C99.1383 103.563 99.2404 103.594 99.3366 103.606C99.2954 103.659 99.2915 103.717 99.3779 103.764C99.5664 103.864 99.7196 103.896 99.8767 103.868L99.8437 104.142C99.586 106.213 99.3555 106.623 99.154 108.848C99.0204 111.126 98.8083 113.398 98.5156 115.661L98.4148 116.483C98.0917 119.088 97.7284 121.713 97.1722 124.277C96.8914 125.397 96.6498 126.525 96.4455 127.661C96.1568 128.526 95.9545 129.41 95.8426 130.312C95.6795 131.229 95.5676 132.155 95.5028 133.088C95.2769 133.685 95.1669 134.291 95.1728 134.909C95.1434 135.74 95.1708 136.569 95.2592 137.394C95.3083 138.253 95.4262 139.103 95.6128 139.946C95.7797 141.102 96.0841 142.218 96.5202 143.301C96.8698 144.51 97.2979 145.695 97.785 146.855C98.5412 148.651 99.4545 150.318 100.493 151.963C101.468 153.504 102.513 154.989 103.707 156.369C105.25 158.153 107.01 159.787 108.939 161.166C110.039 161.981 111.2 162.713 112.413 163.34C113.898 164.107 115.407 164.798 117.015 165.265C118.019 165.556 119.04 165.757 120.073 165.911C122.102 166.212 124.204 166.167 126.244 165.814C127.56 165.637 128.855 165.33 130.078 164.891C131.084 164.529 132.042 164.113 133.001 163.645C133.494 163.406 133.969 163.131 134.425 162.822C135.191 162.323 135.907 161.76 136.575 161.138C136.793 160.951 137.005 160.76 137.214 160.559C137.314 160.471 137.259 160.339 137.143 160.307L137.108 160.303V160.303C137.153 160.262 137.2 160.22 137.245 160.177C137.255 160.169 137.263 160.16 137.271 160.15C137.292 160.13 137.316 160.11 137.335 160.091C137.412 160.024 137.335 159.874 137.269 159.838C137.243 159.825 137.21 159.823 137.172 159.827C137.18 159.819 137.186 159.813 137.194 159.807C137.202 159.801 137.204 159.785 137.202 159.77L137.231 159.746V159.746C137.331 159.657 137.28 159.528 137.163 159.494C137.105 159.476 137.01 159.485 136.911 159.507L136.874 159.516L136.941 159.453C137.058 159.35 137.021 159.236 136.876 159.201C136.767 159.207 136.66 159.222 136.554 159.248L136.475 159.269C136.436 159.279 136.398 159.291 136.359 159.303C136.426 159.242 136.493 159.183 136.558 159.122C136.622 159.065 136.554 158.901 136.495 158.868C136.414 158.823 136.257 158.886 136.184 158.939C136.006 158.959 135.77 159.037 135.684 159.112C135.446 159.34 135.2 159.559 134.951 159.772C134.8 159.819 134.656 159.882 134.546 159.976C134.264 160.248 133.969 160.504 133.668 160.752L133.44 160.91C133.402 160.936 133.363 160.961 133.325 160.986C132.893 161.24 132.461 161.492 132.03 161.746C130.453 162.282 128.876 162.818 127.301 163.351L127.093 163.414V163.414L125.563 163.603V163.603C124.557 163.71 123.55 163.704 122.544 163.587C121.79 163.597 121.041 163.522 120.305 163.369C119.054 163.156 117.826 162.843 116.632 162.406C115.257 161.904 113.947 161.243 112.669 160.53C112.209 160.272 111.757 159.998 111.313 159.709C111.17 159.606 111.027 159.502 110.883 159.395C109.939 158.685 109.035 157.927 108.165 157.125C107.757 156.749 107.364 156.358 106.985 155.952C106.93 155.893 106.877 155.836 106.824 155.776C106.46 155.379 106.109 154.967 105.773 154.542L105.453 154.18V154.18C104.16 152.567 103.011 150.833 101.978 149.046C100.953 147.276 100.108 145.414 99.4368 143.486C99.2207 142.799 99.0322 142.102 98.8751 141.397C98.5844 140.55 98.3939 139.682 98.3055 138.796C98.276 138.623 98.2525 138.449 98.2289 138.276L98.2154 138.003C98.2134 137.957 98.2119 137.912 98.2112 137.867C98.1719 137.591 98.1385 137.315 98.113 137.04C98.0973 136.762 98.0875 136.484 98.0855 136.207L98.1071 134.504V134.504C98.113 134.45 98.1189 134.395 98.1228 134.34L98.166 133.964C98.2603 133.188 98.333 132.411 98.4273 131.635C98.4273 131.631 98.4273 131.625 98.4292 131.619C98.4646 131.33 98.5019 131.038 98.5451 130.747C98.5667 130.573 98.5942 130.4 98.6197 130.227L98.6688 129.924V129.924C98.7599 129.397 98.8706 128.874 99.0047 128.356L99.0636 128.134L99.4054 126.411L99.7903 124.716C100.04 123.58 100.248 122.436 100.413 121.282C100.711 119.443 100.967 117.602 101.189 115.753C101.201 115.664 101.212 115.574 101.222 115.485C101.448 113.77 101.611 112.049 101.717 110.322C101.86 108.621 101.943 106.916 101.965 105.209C101.967 105.132 101.915 105.069 101.855 105.034L101.86 104.706C101.867 104.415 101.872 104.764 101.875 104.433L101.879 103.522C101.878 103.446 101.878 103.393 101.876 103.39C102.926 103.462 103.631 103.403 104.645 103.349L104.816 103.34C105.745 103.297 106.668 103.195 107.586 103.041C107.59 103.089 107.621 103.122 107.674 103.132C107.768 103.136 107.857 103.136 107.947 103.138L107.914 103.266V103.266C107.912 103.331 107.941 103.372 108.004 103.39L108.266 103.401C108.616 103.416 108.967 103.423 109.314 103.376C109.626 103.335 109.931 103.262 110.233 103.175C110.42 103.144 110.61 103.1 110.805 103.045C111.304 102.901 111.799 102.708 112.299 102.555C112.81 102.447 113.329 102.411 113.871 102.541C114.444 102.677 114.929 102.923 115.53 102.773C115.65 102.744 115.766 102.699 115.882 102.651L115.989 102.644C116.007 102.642 116.026 102.64 116.045 102.637C116.671 102.547 117.229 102.149 117.826 101.937C118.035 101.886 118.242 101.899 118.444 101.983L118.494 102.006L118.692 102.153C118.772 102.248 118.851 102.343 118.929 102.439L119.046 102.582C119.26 102.848 119.488 103.086 119.765 103.26C120.099 103.569 120.495 103.75 120.969 103.762C121.238 103.77 121.505 103.713 121.764 103.63C122.742 103.933 123.789 103.994 124.765 103.699C125.152 103.64 125.531 103.536 125.895 103.372C126.066 103.295 126.236 103.205 126.401 103.104C127.091 103.396 127.743 103.783 128.409 104.118L128.559 104.194C129.239 104.534 129.992 104.865 130.762 104.815C131.732 104.752 132.684 104.622 133.635 104.459C133.643 104.459 133.653 104.457 133.661 104.455L133.791 104.433V104.433L134.267 104.349V104.349L134.65 104.278V104.278L134.846 104.353C136.421 104.95 138.146 105.416 139.728 104.998C140.417 104.914 141.063 104.681 141.646 104.286C141.666 104.272 141.686 104.258 141.705 104.242C141.798 104.195 141.884 104.142 141.961 104.085L141.977 104.072V104.072L141.992 104.059L142 104.055C142.862 103.658 143.357 102.811 143.271 101.862C143.324 101.56 143.322 101.265 143.263 100.95C143.544 101.283 143.831 101.612 144.121 101.939C145.184 103.222 146.226 104.531 147.19 105.894L147.411 106.209C147.941 106.959 148.434 107.735 148.89 108.535C149.351 109.324 149.825 110.106 150.314 110.878C150.95 111.582 151.565 112.304 152.157 113.043L152.41 113.361L153.262 114.485C153.865 115.202 154.366 115.985 154.761 116.836C155.085 117.441 155.383 118.057 155.652 118.689C155.739 118.88 155.821 119.073 155.902 119.266C156.179 120.02 156.412 120.788 156.595 121.581C156.742 122.155 156.847 122.737 156.91 123.328L156.929 123.525C156.952 123.757 156.97 123.989 156.98 124.222C156.923 124.255 156.876 124.288 156.84 124.322L156.697 124.373V124.373L156.581 124.408C156.4 124.464 156.088 124.58 156.163 124.724L156.542 125.448V125.448C156.503 125.49 156.485 125.533 156.51 125.58C156.764 126.066 157.019 126.553 157.275 127.039C157.282 127.057 157.296 127.071 157.31 127.081C157.092 127.181 156.88 127.291 156.677 127.411C156.283 127.648 155.992 127.921 155.723 128.24C155.44 128.41 155.173 128.595 154.922 128.807C154.611 129.134 154.34 129.493 154.11 129.88C153.898 130.247 153.725 130.629 153.592 131.028C153.533 131.239 153.505 131.458 153.507 131.68C153.745 133.362 155.664 132.21 155.701 132.062C155.964 131.046 156.267 130.404 156.947 129.648L156.964 129.636V129.636C157.357 129.463 157.746 129.292 158.152 129.158C158.213 129.17 158.276 129.178 158.339 129.187C158.268 129.288 158.304 129.386 158.447 129.404C159.066 129.526 159.69 129.559 160.319 129.506L161.273 129.371V129.371C161.669 129.523 162.048 129.718 162.404 129.951L162.522 130.03L162.544 130.046C163.465 130.788 164.176 131.775 164.663 132.85C164.707 132.945 164.748 133.042 164.788 133.14L164.846 133.287L164.85 133.295C165.486 135.801 164.919 138.554 163.756 140.828C163.122 141.846 162.46 142.844 161.768 143.823L161.097 144.703V144.703C160.7 145.077 160.311 145.461 159.932 145.855C159.873 145.914 159.81 145.973 159.747 146.03C159.547 146.162 159.343 146.278 159.134 146.377C159.054 146.404 158.971 146.43 158.889 146.452C158.488 146.644 158.068 146.747 157.626 146.759C157.042 146.797 156.476 146.729 155.928 146.555L155.819 146.518L155.739 146.489C155.44 146.298 155.163 146.06 154.9 145.78C154.841 145.719 154.731 145.719 154.605 145.752C154.537 145.681 154.468 145.607 154.403 145.526C154.358 145.477 154.287 145.475 154.232 145.512C154.046 145.491 153.541 145.778 153.672 145.93C153.694 145.965 153.722 145.997 153.745 146.03C153.657 146.075 153.568 146.126 153.49 146.18C153.077 146.295 152.468 146.707 152.518 146.831L152.523 146.841C152.619 147.022 152.743 147.174 152.896 147.294L152.948 147.333L153.064 147.414C152.901 147.517 152.763 147.635 152.832 147.717C152.863 147.778 152.897 147.838 152.936 147.891C152.602 148.304 152.27 148.722 151.94 149.139C151.61 149.856 151.202 150.525 150.715 151.145C150.308 151.819 149.819 152.423 149.247 152.963C149.2 153.01 149.151 153.056 149.104 153.101C148.683 153.413 148.242 153.705 147.784 153.985L147.586 154.105C147.482 154.168 147.307 154.247 147.389 154.398C147.399 154.418 147.411 154.434 147.425 154.445C147.136 154.635 146.837 154.814 146.529 154.979L146.5 154.997C146.383 155.072 146.225 155.207 146.392 155.318C146.533 155.412 146.908 155.156 147.085 155.038C147.118 155.038 147.158 155.028 147.197 155.017C147.138 155.048 147.08 155.082 147.021 155.115L146.932 155.164C146.863 155.205 146.525 155.43 146.761 155.525C146.877 155.534 146.983 155.505 147.081 155.438C147.197 155.381 147.311 155.32 147.423 155.257C147.383 155.318 147.383 155.379 147.482 155.418C147.515 155.42 147.548 155.418 147.582 155.414C147.35 155.562 147.112 155.7 146.867 155.83L146.827 155.855C146.724 155.922 146.558 156.05 146.678 156.161C146.814 156.283 147.187 156.023 147.283 155.964L147.57 155.792V155.792C147.592 155.802 147.615 155.806 147.641 155.808C147.554 155.861 147.474 155.918 147.385 155.969L147.265 156.035C147.115 156.119 146.902 156.256 146.979 156.393C147.056 156.528 147.285 156.417 147.433 156.329L147.592 156.23C147.599 156.226 147.606 156.222 147.613 156.218L147.619 156.241C147.621 156.245 147.622 156.249 147.625 156.253C147.699 156.381 147.884 156.297 148.012 156.223L148.114 156.161C148.288 156.055 148.461 155.951 148.632 155.846L148.888 155.688H148.892C149.778 155.154 150.597 154.623 151.369 153.938C151.83 153.528 152.26 153.095 152.669 152.632C153.49 151.705 154.101 150.644 154.69 149.561C154.7 149.543 154.686 149.497 154.662 149.448C154.727 149.314 154.79 149.178 154.853 149.039C155.458 149.208 156.133 149.257 156.756 149.216C157.09 149.194 157.42 149.135 157.748 149.046C158.795 148.901 159.804 148.422 160.676 147.849C160.731 147.814 160.78 147.775 160.831 147.739C161.191 147.536 161.533 147.3 161.857 147.03C162.489 146.506 163.092 145.924 163.64 145.315C164.037 144.843 164.412 144.352 164.763 143.844C165.121 143.342 165.482 142.84 165.844 142.338C166.847 140.763 167.49 138.95 167.739 137.097C167.861 136.414 167.924 135.722 167.91 135.033C167.9 134.535 167.845 134.031 167.749 133.529C167.806 133.474 167.863 133.419 167.92 133.362C167.951 133.417 167.983 133.456 168.002 133.436L168.452 132.985C168.772 132.662 168.986 132.424 169.354 131.903C169.939 131.07 170.375 130.154 170.699 129.189C170.933 128.5 171.088 127.716 171.149 126.959C171.168 126.832 171.188 126.704 171.204 126.574C171.329 125.549 171.213 124.566 171.058 123.554C171.048 123.487 171.015 123.446 170.97 123.424C170.959 123.344 170.945 123.262 170.932 123.18C172.233 121.799 173.169 120.135 173.092 118.125C173.069 117.492 172.939 116.868 172.691 116.285L172.661 116.219V116.219C173.747 116.052 174.609 115.287 175.256 114.339C175.313 114.294 175.369 114.248 175.422 114.202C176.579 113.212 177.382 111.809 177.931 110.327C178.325 109.466 178.585 108.547 178.696 107.593C178.704 107.525 178.708 107.457 178.714 107.39C178.983 105.882 179.051 104.358 178.927 102.858C179.197 101.929 179.416 100.984 179.567 100.017C179.637 99.5562 179.686 99.0953 179.724 98.6346L179.728 98.6092L179.734 98.5263L179.75 98.3196C179.753 98.2854 179.755 98.2513 179.757 98.2171C180.089 93.9996 179.148 89.8489 177.593 85.9425C177.457 85.5912 177.317 85.2407 177.173 84.8931L177.02 84.5299V84.5299C175.458 82.0057 173.114 79.964 171.128 77.8078C170.443 77.0639 171.551 75.9471 172.239 76.6939C173.558 78.1266 174.974 79.4988 176.252 80.9714C176.477 80.9879 176.703 80.994 176.929 80.9828C177.322 80.9629 177.703 80.9001 178.072 80.7995C178.993 80.6636 179.832 80.2915 180.594 79.7441C181.613 79.2678 182.483 78.3698 182.57 77.1982C182.58 77.0801 182.578 76.9639 182.57 76.8479C182.664 76.2748 182.58 75.6744 182.34 75.1209C182.299 74.9693 182.246 74.8197 182.179 74.672C181.984 74.2329 181.664 73.8117 181.273 73.526C181.264 73.5201 181.256 73.5164 181.248 73.5103C181.207 73.4672 181.167 73.4237 181.122 73.3845C181.055 73.3232 180.985 73.2663 180.91 73.2132C181.175 72.7759 181.415 72.3271 181.619 71.8485C181.841 71.3287 181.955 70.8012 182.018 70.2437C182.043 70.0232 182.053 69.8047 182.057 69.5863C182.069 69.4857 182.077 69.3833 182.085 69.2809C182.134 68.5012 182.043 67.6921 181.753 66.9634C181.731 66.9085 181.704 66.8532 181.678 66.7961C181.623 66.6307 181.562 66.4655 181.487 66.3038C181.197 65.6836 180.784 65.1579 180.276 64.7267C180.001 64.449 179.692 64.2029 179.356 63.9942C179.158 63.8701 178.932 63.7599 178.695 63.6693C178.27 63.4448 177.726 63.2401 177.284 63.2245C177.231 63.2223 177.184 63.2285 177.133 63.2285C177.092 62.0981 176.947 60.8674 176.501 59.8436C176.241 59.1015 175.853 58.4418 175.267 57.9671C174.928 57.6119 174.51 57.3235 173.988 57.135L173.894 57.1027L173.859 57.0929C173.39 56.8645 172.883 56.7739 172.362 56.7761C171.756 56.7444 171.137 56.8588 170.609 57.1382C170.499 57.1973 170.381 57.2701 170.269 57.3489C170.184 57.1795 170.09 57.0082 169.982 56.8371C169.603 56.2285 169.145 55.6989 168.615 55.2165C168.552 55.1594 168.483 55.1082 168.417 55.0532C168.159 54.8189 167.886 54.6023 167.604 54.4054C166.993 53.9799 166.323 53.6631 165.62 53.4581C164.808 53.1574 163.952 53.0178 163.095 53.0472L162.917 53.0547V53.0547C162.878 53.0584 162.839 53.0604 162.801 53.0624C161.951 53.1177 161.112 53.3264 160.311 53.6413C159.48 53.9703 158.777 54.4682 158.123 55.0392C157.97 54.8268 157.795 54.6258 157.581 54.4367C157.52 54.3838 157.455 54.3363 157.394 54.2871C157.347 54.2398 157.298 54.1945 157.247 54.1493C157.013 53.9425 156.766 53.7633 156.495 53.6039C156.19 53.4249 155.862 53.3008 155.523 53.224C155.177 53.1057 154.814 53.0328 154.444 53.0092ZM158.48 134.181C158.446 134.179 156.627 134.863 155.72 135.305L155.676 135.327C154.631 135.846 154.128 136.221 153.189 136.888C153.126 136.933 153.062 137.002 153.062 137.069C153.062 138.041 153.297 139.23 154.112 138.703C154.23 138.627 154.349 138.553 154.469 138.48L154.649 138.371L154.654 138.373C154.652 138.373 154.651 138.371 154.649 138.369C156.424 137.284 158.3 136.433 160.28 135.825C160.415 135.776 159.411 134.255 159.134 134.34C159.294 134.277 158.507 134.182 158.48 134.181ZM139.825 91.24C141.006 91.3666 142.186 91.4913 143.367 91.6132C144.119 91.6998 144.873 91.7766 145.628 91.8416C146.761 91.9264 147.894 91.94 149.023 91.7845C149.424 91.7295 149.817 91.6506 150.206 91.5541C150.471 91.749 150.746 91.9321 151.027 92.1076L154.146 94.4997V94.4997C156.237 96.1479 158.284 97.8942 160.126 99.8219C163.344 103.19 165.965 107.13 167.612 111.494C167.762 111.582 167.877 111.736 167.916 111.973C168.207 113.762 169.058 115.393 169.365 117.175C169.668 118.929 169.266 120.421 168.166 121.812C167.931 122.109 167.451 122.093 167.156 121.893C167.087 122.028 166.79 122.022 166.686 121.426C166.197 120.895 165.779 120.339 165.495 119.65C165.287 119.143 165.637 118.791 166.063 118.722C165.886 118.084 165.687 117.452 165.463 116.826C164.799 114.967 163.954 113.191 162.892 111.526C161.957 110.061 160.875 108.785 159.712 107.505C159.698 107.487 159.675 107.481 159.649 107.477L159.407 107.209V107.209C159.374 107.172 159.305 107.176 159.229 107.196C159.156 107.119 159.085 107.04 159.011 106.963C158.938 106.885 158.858 106.908 158.812 106.971C158.689 106.944 158.463 107.078 158.394 107.121C158.276 107.2 158.239 107.288 158.339 107.4C158.357 107.42 158.374 107.44 158.392 107.458C158.257 107.515 158.123 107.591 158.019 107.666C157.656 107.747 157.145 108.086 157.233 108.186C157.42 108.381 157.601 108.58 157.779 108.783C157.622 108.893 157.52 109.001 157.561 109.049C158.327 109.858 159.034 110.714 159.682 111.622C160.175 112.299 160.621 113.004 161.02 113.739C161.613 114.778 162.116 115.847 162.562 116.946C162.625 117.114 162.686 117.281 162.744 117.448C163.397 119.277 163.884 121.176 164.09 123.109L164.098 123.239C164.137 123.936 164.152 125.801 164.223 126.246C163.789 126.46 163.338 126.643 162.868 126.793C162.78 126.819 162.689 126.842 162.599 126.864C162.548 126.842 162.495 126.825 162.442 126.809C162.01 126.634 161.558 126.508 161.097 126.446C160.786 126.405 160.476 126.391 160.167 126.4L160.034 126.405C159.897 126.409 159.761 126.419 159.624 126.433C159.631 126.354 159.635 126.277 159.641 126.198C159.68 126.173 159.71 126.138 159.712 126.09C159.804 125.204 159.806 124.318 159.718 123.432C159.659 122.969 159.59 122.509 159.516 122.048C159.439 121.67 159.351 121.298 159.254 120.925C158.999 119.882 158.659 118.864 158.247 117.868C157.072 115.026 155.389 112.465 153.696 109.917C152.461 108.056 151.292 106.154 150.013 104.325C148.925 102.767 147.782 101.234 146.563 99.7766C145.345 98.3217 144.058 96.9215 142.67 95.6261C142.446 95.4192 142.22 95.2184 141.99 95.0197C140.674 93.8383 139.244 92.8674 137.756 91.9146C137.699 91.8772 137.597 91.9185 137.512 91.9892L137.272 91.8412C137.232 91.8166 137.191 91.7923 137.151 91.7687C137.113 91.7453 137.072 91.7845 137.051 91.8179C136.948 91.7648 136.846 91.7138 136.744 91.6624C136.67 91.6021 136.593 91.545 136.518 91.4856C137.622 91.4298 138.724 91.3471 139.825 91.24ZM125.979 78.1138C126.871 77.9348 127.766 77.909 128.666 78.0429C129.043 78.0982 129.418 78.1648 129.79 78.2453C128.945 78.9837 128.266 79.9286 127.825 81.0161C127.348 82.1916 129.249 82.6982 129.719 81.5396C130.172 80.422 131.03 79.5647 132.066 79.0508C132.29 79.1762 132.507 79.3121 132.714 79.4625C132.985 79.6831 133.24 79.9213 133.48 80.1832C134.002 80.7524 134.482 81.5123 134.796 82.2644C134.918 82.674 135.008 83.0953 135.065 83.5285C135.077 83.6269 135.088 83.7274 135.098 83.8278C135.292 85.8655 134.711 87.8481 133.711 89.6024L133.672 89.603V89.603C132.779 89.1179 131.845 88.7091 130.883 88.3761C130.113 87.8565 129.314 87.3759 128.491 86.9407C126.742 86.0155 124.894 85.3022 122.99 84.8144L122.77 84.7591C122.321 84.6443 121.869 84.5431 121.414 84.4545L121.142 84.4029H121.138L121.167 84.1093V84.1093C121.32 82.9575 121.77 81.8883 122.352 80.9001C122.788 80.1539 123.445 79.3899 124.176 78.7795L124.18 78.7773C124.512 78.5883 124.861 78.432 125.219 78.3027L125.355 78.2556L125.979 78.1138ZM149.921 76.3636C151.775 76.1881 153.629 76.2058 155.483 76.3574C156.695 76.4778 157.899 76.6449 159.097 76.8576C159.908 76.9974 160.704 77.1943 161.485 77.4386L161.038 78.3451C160.291 79.8547 159.526 81.3544 158.624 82.7803C158.158 83.5147 157.654 84.2139 157.104 84.8851C156.732 85.3656 156.324 85.8107 155.876 86.2201C155.758 86.364 155.633 86.4999 155.505 86.6316C155.096 86.9821 154.656 87.2893 154.175 87.5433C153.789 87.825 153.386 88.0712 152.967 88.287L152.808 88.3665L151.335 88.9334C151.257 88.9557 151.177 88.978 151.097 88.9992L150.978 89.03L150.754 89.0771L150.586 88.9856C150.558 88.9706 150.529 88.9557 150.5 88.9412C150.453 88.9158 150.42 88.9651 150.41 89.0003C150.406 89.0143 150.412 89.0338 150.422 89.0535L150.207 88.9371V88.9371C149.838 89.0873 149.447 89.2074 149.026 89.2866C148.836 89.3222 148.646 89.3496 148.455 89.373L148.43 89.3901C148.425 89.3931 148.421 89.3964 148.417 89.4002H148.208V89.4002C146.74 89.5422 145.251 89.3545 143.785 89.0905C141.71 88.8814 139.636 88.6508 137.563 88.4352C137.524 88.4315 137.508 88.449 137.508 88.4768L137.381 88.4649V88.4649C137.196 88.4451 136.98 88.7542 137.119 88.8666C137.007 88.9334 136.899 89.03 136.819 89.1049L136.772 89.1007C137.056 88.5415 137.276 87.9567 137.434 87.3485L137.634 86.3284V86.3284C137.689 85.9484 137.72 85.543 137.726 85.1431C137.74 84.9599 137.75 84.7888 137.75 84.639C137.75 84.4972 137.748 84.3555 137.742 84.2139C138.133 84.0522 138.53 83.9107 138.934 83.7904C140.083 83.6488 141.23 83.5068 142.379 83.367C143.068 83.3926 143.758 83.4419 144.445 83.5186C145.225 83.5876 146.003 83.6762 146.779 83.7825C146.851 83.7904 146.981 83.6919 147.059 83.5777L147.391 83.6232V83.6232C147.564 83.6449 147.745 83.2981 147.517 83.2272C147.435 83.1944 147.352 83.1634 147.27 83.1335L147.146 83.0894L147.217 83.0973C147.24 83.0995 147.27 83.0933 147.303 83.0817C147.486 83.1052 147.668 83.1288 147.849 83.1504C148.078 83.1791 148.026 82.8762 147.865 82.8049L147.788 82.7763C147.924 82.6915 148.043 82.4593 147.875 82.3833L147.853 82.3747C147.774 82.3434 147.698 82.3176 147.619 82.288C147.625 82.2626 147.625 82.2388 147.617 82.2173L147.941 82.2585V82.2585C147.971 82.2624 147.83 82.0551 147.763 82.0141L147.751 82.0084L147.596 81.9612C147.572 81.8942 147.446 81.7466 147.403 81.733C146.834 81.5536 146.303 81.3923 145.749 81.2681C145.722 81.2346 145.69 81.209 145.655 81.2012C145.309 81.1185 144.96 81.0535 144.61 80.9985C144.587 80.9629 144.563 80.9375 144.536 80.9353C143.669 80.8251 142.801 80.7995 141.929 80.8587C141.762 80.8743 141.595 80.8922 141.428 80.9137C141.108 80.9493 140.788 80.9946 140.47 81.0556C139.673 81.1928 138.895 81.4012 138.136 81.6824L137.962 81.7485C137.771 81.8196 137.583 81.8942 137.396 81.9752C137.302 81.6385 137.184 81.3075 137.045 80.9828C137.023 80.9196 136.999 80.8587 136.974 80.7977L137.164 80.6833V80.6833C137.206 80.7621 137.29 80.8231 137.345 80.7898C138.71 79.8664 140.154 79.0963 141.676 78.482C142.528 78.1039 143.4 77.7832 144.294 77.5152C144.74 77.3717 145.19 77.2417 145.641 77.1177C145.867 77.0702 146.093 77.023 146.323 76.9836C147.503 76.6646 148.703 76.4581 149.921 76.3636ZM104.941 79.4889C105.107 79.776 105.28 80.0603 105.463 80.3407C106.35 81.7031 107.415 82.9815 108.622 84.0962C108.307 84.0954 107.993 84.1074 107.683 84.1365C107.148 84.1871 106.624 84.2761 106.114 84.4008C106.072 84.3675 106.026 84.3507 105.989 84.3771L105.856 84.4695V84.4695C104.76 84.7658 103.732 85.2317 102.8 85.8558L102.817 85.7326C102.82 85.712 102.823 85.6915 102.827 85.6709C102.811 85.4288 102.807 85.1864 102.815 84.9462C103.007 83.5265 103.489 82.2191 104.039 80.8962C104.049 80.8706 104.042 80.8373 104.026 80.8034C104.303 80.349 104.607 79.9095 104.941 79.4889ZM104.689 68.3279C105.099 68.4027 105.506 68.4992 105.91 68.6193C106.67 68.7337 107.407 68.9346 108.118 69.2199C109.098 69.5684 110.049 69.974 110.995 70.4034C112.834 71.2381 114.558 72.2937 116.127 73.5656C116.228 73.6422 116.324 73.7212 116.42 73.7999C116.772 74.1049 117.113 74.4239 117.437 74.7606C117.777 75.1308 118.119 75.5011 118.459 75.8731C118.875 76.3104 119.354 76.706 119.731 77.1785C119.808 77.275 119.875 77.3813 119.936 77.4878L119.714 77.5644V77.5644C119.527 77.6274 119.559 77.9779 119.743 77.9267C119.806 77.909 119.865 77.8874 119.924 77.8639C119.898 77.8974 119.881 77.9309 119.877 77.9602C119.865 78.0547 119.938 78.1849 120.054 78.1514C120.107 78.1374 120.16 78.1177 120.213 78.0961C120.228 78.1571 120.24 78.2181 120.24 78.2772C120.23 78.2811 120.221 78.2851 120.209 78.2873C120.079 78.3325 119.836 78.5351 119.8 78.6732C119.773 78.7795 119.863 78.8935 119.979 78.862C120.065 78.8384 120.15 78.8029 120.232 78.7635C120.177 78.8169 120.134 78.874 120.13 78.9232C120.122 79.0138 120.201 79.1416 120.309 79.1123C120.509 79.0569 120.67 78.9725 120.804 78.8661C120.839 78.9132 120.89 78.9506 120.932 78.939L121.008 78.9154V78.9154C120.987 78.9349 120.968 78.9555 120.949 78.9758L120.922 79.0057C120.38 79.5925 119.906 80.2423 119.527 80.9414C119.51 80.9216 119.488 80.9038 119.46 80.8822C119.284 80.7325 119.101 80.5868 118.918 80.4453L118.863 80.3968V80.3968L118.806 80.3486L119.217 80.4844L119.208 80.4738C119.179 80.4366 119.088 80.3124 119.046 80.271L119.036 80.2619C118.472 79.7561 117.858 79.3267 117.194 78.9764C116.764 78.6966 116.312 78.4603 115.839 78.2654C114.709 77.7397 113.558 77.3402 112.376 76.97C112.199 76.9129 112.023 76.8519 111.846 76.7965C111.795 76.7788 111.785 76.8005 111.793 76.8359L111.7 76.8083V76.8083C111.535 76.7552 111.255 77.0466 111.367 77.1825C111.299 77.2376 111.233 77.299 111.175 77.3567L111.133 77.399L111.086 77.3853C110.945 77.3419 110.709 77.5612 110.558 77.7165L110.447 77.8342C110.363 77.9248 110.198 78.1118 110.4 78.1849L110.654 78.2713V78.2713C110.646 78.3225 110.667 78.3658 110.746 78.3953C110.834 78.4249 110.921 78.4564 111.007 78.4881C110.955 78.5339 110.903 78.5815 110.853 78.6298L110.777 78.7025C110.688 78.7935 110.477 78.9941 110.664 79.0827L110.687 79.0924L110.929 79.179C110.897 79.2499 110.905 79.317 111.011 79.3562C112.421 79.8366 113.798 80.4 115.143 81.0399C116.151 81.5989 117.215 82.0165 118.337 82.29C118.429 82.3197 118.63 82.1799 118.712 82.0401L118.88 82.0895C118.907 82.0977 118.935 82.1056 118.964 82.1128L118.991 82.1189V82.1189C118.781 82.6801 118.626 83.2883 118.539 83.877C118.529 83.9302 118.522 83.9855 118.516 84.0387C118.296 84.0207 118.078 84.005 117.858 83.9934C116.336 83.9124 114.796 83.9617 113.27 84.1428C112.653 83.7746 112.06 83.371 111.492 82.9341C111.319 82.8 111.149 82.6621 110.98 82.5223C109.966 81.6402 109.049 80.65 108.236 79.5807C107.484 78.5903 106.83 77.527 106.28 76.4128C105.793 75.367 105.39 74.2802 105.085 73.1578C104.807 72.132 104.71 71.1337 104.64 70.0724C104.616 69.8992 104.6 69.7261 104.587 69.5526L104.588 69.4784V69.4784L104.591 69.4424C104.61 69.0704 104.647 68.6981 104.689 68.3279ZM119.079 81.5142C119.125 81.53 119.172 81.5457 119.219 81.5595C119.191 81.6205 119.166 81.6798 119.14 81.7407L119.137 81.7394V81.7394L118.952 81.593V81.593C118.991 81.5753 119.036 81.5479 119.079 81.5142ZM104.964 65.536C104.61 65.404 104.343 65.3784 104.162 65.4611C104.429 65.4808 104.697 65.5064 104.964 65.536Z" fill="black"/>
<path fill-rule="evenodd" clip-rule="evenodd" d="M116.569 150.061C117.892 149.521 119.073 148.62 119.936 147.469C120.236 147.069 120.314 146.647 120.251 146.261C120.18 145.826 119.923 145.433 119.573 145.169C119.221 144.904 118.782 144.773 118.357 144.84C117.987 144.897 117.62 145.1 117.329 145.519L117.268 145.603C116.755 146.298 116.086 146.867 115.324 147.235C114.59 147.589 113.769 147.754 112.919 147.658C111.3 147.475 110.185 146.599 108.999 145.41C108.852 145.26 108.705 145.105 108.557 144.948C108.464 144.805 108.334 144.713 108.19 144.665C108.031 144.612 107.85 144.615 107.685 144.673C107.525 144.728 107.382 144.834 107.287 144.974C107.196 145.108 107.144 145.273 107.161 145.463C107.27 146.695 107.914 147.795 108.829 148.659C109.845 149.618 111.192 150.281 112.46 150.514C113.857 150.77 115.28 150.587 116.569 150.061V150.061ZM111.801 131.048C110.314 131.952 108.05 134.059 109.649 136.3C111.531 138.276 114.24 136.01 115.576 134.986C116.814 134.192 118.205 136.234 117.056 137.161C107.407 144.308 103.491 131.285 111.049 129.986C111.881 129.842 112.19 130.769 111.801 131.048ZM129.092 122.735C128.927 120.696 125.823 120.233 125.514 122.251C125.238 124.058 125.563 125.719 126.377 127.346C127.155 128.901 129.109 128.175 129.257 126.76C129.455 124.862 129.194 124.003 129.092 122.735ZM105.46 121.832C105.028 121.265 104.403 120.878 103.654 121.097C101.315 121.781 102.004 125.103 102.826 126.72C103.272 127.598 104.715 127.821 105.367 127.048C106.43 125.787 106.939 123.269 105.588 122.027C105.551 121.962 105.51 121.898 105.46 121.832ZM126.41 113.812L126.04 113.748C124.897 113.55 123.476 113.36 122.667 114.279C122.238 114.767 122.091 115.673 122.667 116.14C123.681 116.961 124.802 116.642 126.018 116.712C127.019 116.769 127.982 116.935 128.946 117.211C131.062 117.816 132.787 118.921 134.594 120.134C134.831 120.293 135.073 119.989 134.96 119.767C133.917 117.723 131.895 116.044 129.87 115.02C128.789 114.474 127.606 114.02 126.41 113.812ZM107.593 112.897L107.31 112.954C104.232 113.598 100.234 114.884 98.7761 117.908C98.7205 118.336 98.7792 118.427 98.8269 118.487L98.8428 118.507C98.8821 118.558 98.9135 118.629 99.0988 118.687C99.1502 118.675 99.2021 118.662 99.2546 118.648C99.9227 118.473 100.451 118.231 100.963 117.981L101.518 117.708C102.162 117.392 102.811 117.088 103.499 116.863C104.968 116.384 106.479 116.046 108.013 115.866C108.345 115.827 108.665 115.715 108.918 115.522C109.158 115.34 109.341 115.087 109.424 114.751C109.533 114.316 109.502 113.986 109.268 113.594C109.093 113.299 108.842 113.095 108.554 112.978C108.26 112.858 107.925 112.83 107.593 112.897Z" fill="black"/>
</g>
<defs>
<clipPath id="clip0_3_19507">
<rect width="280" height="280" fill="white"/>
</clipPath>
</defs>
</svg>
