<svg width="280" height="280" viewBox="0 0 280 280" fill="none" xmlns="http://www.w3.org/2000/svg">
<g clip-path="url(#clip0_3_19659)">
<rect x="151.394" y="192.977" width="48.3803" height="59.6008" fill="#FDEA6B"/>
<path fill-rule="evenodd" clip-rule="evenodd" d="M137.283 134.68C142.498 130.707 155.591 128.921 161.157 132.746C166.655 136.587 167.254 142.799 169.816 148.514C172.233 147.374 176.225 149.007 176.926 151.25C177.795 152.309 177.834 155.282 178.433 156.704C204.512 160.857 208.472 181.197 211.611 204.289C215.763 227.721 225.19 251.102 221.098 275.214C221.631 275.986 222.052 276.736 222.44 277.627C223.372 279.213 222.172 281.457 220.293 281.37C217.861 281.157 215.453 280.865 213.01 280.774C206.237 280.539 199.458 280.567 192.682 280.653L191.758 280.665C157.61 281.09 123.464 281.928 89.3149 282.15C88.076 282.152 87.4695 281.041 87.6349 279.944C87.968 277.737 88.2771 275.528 88.5997 273.319C80.5226 275.454 71.9358 275.991 63.8814 273.544C63.318 272.97 65.1942 273.281 65.4919 273.194C58.0794 268.127 60.293 257.452 60.9497 249.763C65.0326 223.418 66.472 194.269 82.2471 171.789C89.0717 162.614 99.0771 155.351 110.574 153.716L110.893 153.673C114.255 153.224 118.001 153.08 120.941 151.25C124.246 148.61 125.655 143.732 129.133 143.686C130.281 143.671 131.843 145.125 133.525 146.112C133.65 143.941 134.819 142.109 135.078 140.426L135.098 140.282C135.368 138.32 134.999 136.554 137.283 134.68ZM193.33 204.985C186.001 199.891 167.069 202.451 166.635 202.736C165.681 203.364 165.27 203.419 164.754 204.235C164.244 204.302 163.735 204.373 163.226 204.445C162.206 204.778 162.962 206.034 164.141 205.586C163.432 208.645 165.519 210.821 166.349 213.845C166.619 214.827 166.359 216.593 166.349 217.597C166.43 218.876 167.844 220.387 167.608 221.67C166.77 226.233 162.224 230.684 164.141 235.109C165.411 237.608 169.23 238.883 171.769 239.733C177.029 241.752 186.195 239.656 189.251 235.109C190.881 232.684 192.77 226.566 193.742 224.668L193.957 221.658C194.489 214.174 194.961 206.119 193.33 204.985Z" fill="#D08B5B"/>
<path fill-rule="evenodd" clip-rule="evenodd" d="M128.862 143.7L130.959 144.988L143.14 151.012C145.502 151.673 146.683 152.466 146.683 153.39V162.799C146.683 164.058 148.899 166.912 153.331 171.36L157.426 167.277L157.334 166.742C156.944 164.438 156.75 162.897 156.75 162.119C156.75 161.282 160.756 158.104 168.768 152.585L172.273 149.284L171.899 148.147C174.06 148.249 176.404 149.581 176.926 151.25C177.795 152.309 177.834 155.282 178.433 156.704C204.512 160.857 208.472 181.197 211.611 204.289C215.763 227.721 225.19 251.102 221.098 275.214C221.631 275.986 222.052 276.736 222.44 277.628C223.372 279.213 222.172 281.457 220.293 281.371C217.861 281.157 215.453 280.865 213.01 280.774C206.237 280.539 199.458 280.567 192.682 280.653L191.758 280.665C157.61 281.09 123.464 281.928 89.3149 282.151C88.076 282.152 87.4695 281.041 87.6349 279.944C87.968 277.737 88.2771 275.528 88.5997 273.32C80.5226 275.454 71.9358 275.991 63.8814 273.544C63.318 272.97 65.1942 273.281 65.4919 273.194C58.0794 268.127 60.293 257.452 60.9497 249.764C65.0326 223.419 66.472 194.269 82.2471 171.789C89.0717 162.615 99.0771 155.351 110.574 153.716L110.893 153.673L111.214 153.631C114.492 153.213 118.095 153.022 120.941 151.25C124.159 148.68 125.579 143.988 128.862 143.7ZM158.05 198.927C156.855 198.927 154.408 200.783 150.709 204.495L150.383 204.646C145.912 206.724 142.95 208.526 141.497 210.053L141.445 210.108C139.977 211.684 137.07 215.873 132.725 222.675L126.432 226.398H124.051L122.355 238.699L126.432 247.483L135.665 244.372L150.709 240.405L159.342 231.643L164.212 230.008C163.621 231.715 163.407 233.414 164.141 235.109C165.411 237.609 169.23 238.883 171.769 239.733C177.029 241.752 186.195 239.657 189.251 235.109C190.881 232.684 192.77 226.566 193.742 224.668L194.021 220.758C194.523 213.541 194.896 206.073 193.33 204.985C186.001 199.892 167.069 202.451 166.635 202.736C165.681 203.364 165.27 203.419 164.754 204.235L164.487 204.271L165.989 202.232L165.457 201.948C161.661 199.934 159.192 198.927 158.05 198.927ZM164.141 205.586C163.462 208.515 165.346 210.634 166.237 213.463L163.96 209.104L163.96 205.643C164.019 205.628 164.08 205.61 164.141 205.586Z" fill="#9DDADB"/>
<path fill-rule="evenodd" clip-rule="evenodd" d="M127.856 143.245C128.362 142.797 129.111 143.36 128.789 143.966C128.067 145.327 127.325 146.616 126.356 147.819C125.768 148.549 125.138 149.239 124.5 149.921C126.138 151.338 127.542 153.098 128.869 154.748C130.565 156.857 132.169 159.056 134.073 160.986C135.951 162.89 138.027 164.221 140.538 165.108L141.045 165.284C143.567 166.17 146.263 167.366 147.685 169.755C147.965 170.226 147.4 170.808 146.926 170.514C144.456 168.984 141.553 168.676 138.864 167.665C136.266 166.689 134.002 165.186 132.001 163.267C130.004 161.352 128.327 159.173 126.578 157.04C124.848 154.931 122.985 153.129 120.939 151.345C117.782 153.47 114.177 154.395 110.513 155.303L110.113 155.402C106.443 156.311 102.794 157.366 99.3513 158.949C96.3162 160.344 93.331 162.01 90.8587 164.28C88.2344 166.69 86.1918 169.767 84.3223 172.776C80.1405 179.509 77.2005 186.885 74.6122 194.351C71.9203 202.116 69.6686 210.037 67.8508 218.052C66.9263 222.129 66.1755 226.235 65.5584 230.37C65.2613 232.361 64.9974 234.357 64.7657 236.357C64.5183 238.493 64.4615 240.69 63.8065 242.743C63.5258 243.623 62.8628 243.989 62.1992 243.957L62.0644 245.644C61.8857 247.892 61.7191 250.141 61.6628 252.403C61.5694 256.165 61.6118 259.916 61.8822 263.67L61.9205 264.181C62.1331 266.921 62.608 269.999 64.6672 272.005C66.7998 274.083 70.0793 274.736 72.9536 274.773C79.648 274.86 86.0921 271.696 92.016 268.92C98.117 266.061 104.051 262.888 109.843 259.446C112.793 257.693 115.711 255.882 118.592 254.018C120.005 253.103 121.409 252.173 122.802 251.228C123.6 250.686 124.356 250.093 125.168 249.612C124.77 249.241 124.593 248.659 124.926 248.15C122.578 246.111 121.6 242.472 121.486 239.527C121.394 237.151 121.744 234.781 122.019 232.427C122.159 231.239 122.331 230.054 122.509 228.873C122.58 228.406 122.634 227.906 122.716 227.413C116.375 230.899 109.857 234.004 103.166 236.761C99.736 238.175 96.2623 239.446 92.7407 240.611L92.0269 240.846C88.6902 241.939 85.2736 242.971 81.8241 243.595C81.6396 243.629 81.4898 243.356 81.6867 243.27C85.0484 241.786 88.5265 240.534 91.9387 239.167L92.4994 238.939V238.939C92.435 238.935 92.3682 238.927 92.2985 238.91C90.2974 238.427 88.3119 237.682 86.3492 237.055C84.5277 236.473 82.4811 236.108 80.7785 235.23C80.6475 235.162 80.7208 234.98 80.8484 234.971C82.7621 234.838 84.8395 235.396 86.7158 235.725L87.4206 235.848C88.6014 236.056 89.8084 236.28 90.9834 236.572C91.0258 236.179 91.2458 235.783 91.5586 235.551C95.0017 233 94.652 227.849 95.0203 224.05L95.2933 221.229C95.7736 216.293 96.2817 211.357 97.0537 206.458C97.0949 206.197 97.4995 206.272 97.5012 206.519C97.541 212.592 97.0827 218.637 96.853 224.7L96.8175 225.695C96.6905 229.437 96.5909 233.322 94.2354 236.201C94.5648 236.008 95.0101 236.008 95.277 236.326C95.6048 236.716 95.7941 237.154 95.7882 237.584C97.9167 236.692 100.036 235.776 102.145 234.841C108.925 231.836 115.563 228.473 122.026 224.835C122.721 224.443 123.382 224.751 123.726 225.267L123.776 225.26C123.784 225.259 123.792 225.258 123.801 225.258L123.85 225.256C123.852 225.256 123.854 225.256 123.856 225.256C124.765 224.756 126.005 225.112 126.785 225.841C126.808 225.863 126.828 225.887 126.849 225.91C127.837 225.466 128.76 224.867 129.597 224.108C131.311 222.554 132.763 220.633 134.028 218.706C136.359 215.157 138.338 211.211 141.486 208.29C144.044 205.917 147.215 204.439 150.542 203.512C150.528 203.415 150.565 203.311 150.632 203.242C150.803 203.067 150.925 203.006 151.146 203.113C151.164 203.121 151.174 203.133 151.181 203.146L151.506 202.591C151.683 202.29 151.865 201.986 151.928 201.907C152.306 201.431 152.695 200.959 153.089 200.497C153.758 199.714 154.521 198.942 155.404 198.399C157.337 197.211 159.369 197.883 161.356 198.533C162.557 198.925 163.754 199.33 164.953 199.729L165.076 199.769C165.97 200.056 167.016 200.308 167.416 201.255C167.574 201.63 167.599 202.019 167.525 202.397C176.015 200.237 185.444 201.229 193.728 203.764C194.046 203.862 194.364 204.123 194.431 204.467C195.38 209.337 195.803 214.331 195.373 219.283C195.003 223.559 194.056 227.748 192.271 231.662L192.17 231.883C190.493 235.51 187.835 239.982 183.776 241.119C181.325 241.805 178.614 241.401 176.115 241.275C173.685 241.152 171.202 241.135 168.796 240.753C166.653 240.412 164.775 239.451 163.45 237.708C162.308 236.204 161.706 234.386 161.213 232.578C160.988 232.65 160.764 232.727 160.543 232.813C159.612 233.177 158.823 233.764 158.11 234.455C156.604 235.914 155.435 237.686 153.86 239.078C152.433 240.339 150.808 241.319 149.064 242.073C145.451 243.635 141.575 244.259 137.754 245.086L137.487 245.144C134.61 245.776 131.673 246.551 129.134 248.05C129.084 248.491 128.883 248.906 128.561 249.178C129.009 249.599 129.199 250.265 128.805 250.89C127.706 252.636 125.812 253.629 124.112 254.745L124.002 254.818C122.329 255.927 120.642 257.014 118.941 258.079C115.484 260.245 111.954 262.291 108.375 264.247C102.618 267.394 96.7368 270.362 90.7495 273.054C91.1089 274.823 90.9775 276.646 91.2477 278.427L91.2891 278.681C91.4045 279.342 91.2486 279.894 90.7936 280.326L90.7455 280.37L90.7463 280.364L90.7036 280.404L90.6894 280.416L90.6941 280.412C90.6417 280.46 90.5876 280.505 90.5324 280.543L90.4622 280.588V280.588C90.024 280.854 89.4598 280.851 89.0111 280.616L88.9598 280.588L88.8736 280.539C88.2808 280.197 87.872 279.352 88.1179 278.681C88.7224 277.031 88.9508 275.269 89.5089 273.608L89.0661 273.806V273.806L88.4825 274.061C82.1702 276.791 75.1586 279.091 68.281 277.229C65.2421 276.407 62.4018 274.666 60.8813 271.83C59.3851 269.039 59.1736 265.798 59.0942 262.693C58.9962 258.861 59.2015 254.971 59.7067 251.172C60.0458 248.621 60.4558 246.023 61.0884 243.499C60.763 243.212 60.5239 242.8 60.4607 242.29C60.1622 239.879 60.6846 237.374 61.0045 234.976C61.317 232.634 61.6622 230.297 62.0526 227.968C62.8408 223.264 63.7567 218.569 64.8229 213.92C66.7205 205.645 69.2264 197.518 72.2433 189.584L72.5075 188.893C75.2953 181.642 78.5231 174.546 83.0177 168.176C85.1678 165.128 87.4406 162.365 90.4786 160.169C93.3248 158.111 96.5353 156.629 99.8484 155.497C103.165 154.364 106.574 153.604 110.043 153.132C113.567 152.652 117.286 152.358 120.572 150.912C120.156 150.167 120.513 149.16 121.213 148.697C123.568 147.141 125.745 145.116 127.856 143.245ZM203.237 210.924C203.336 210.774 203.57 210.869 203.527 211.047C202.382 215.74 201.307 220.444 200.605 225.227C199.337 233.861 199.57 242.607 199.674 251.305L199.679 251.754C199.732 256.439 199.806 261.124 199.961 265.807C200.039 268.174 200.194 270.564 200.11 272.932C200.064 274.217 199.722 275.432 199.601 276.701C199.494 277.811 199.589 278.937 199.642 280.049C199.678 280.788 198.587 280.756 198.513 280.049L198.418 279.134C198.295 277.976 198.143 276.825 197.764 275.717C197.308 274.384 197.089 273.075 196.93 271.675C196.688 269.53 196.58 267.364 196.487 265.205L196.423 263.711C196.032 254.685 196.046 245.617 196.678 236.601L196.724 235.957C197.351 227.435 198.437 218.226 203.237 210.924ZM178.824 157.21C178.525 157.087 178.63 156.635 178.961 156.714L179.564 156.857C183.978 157.915 188.312 159.061 192.433 161.029C196.555 162.999 200.046 165.939 202.82 169.554C208.211 176.582 210.452 185.123 212.22 193.655C214.186 203.137 215.976 212.653 217.958 222.131L218.327 223.897C220.161 232.725 221.893 241.558 223.17 250.49L223.261 251.138C224.548 260.324 225.323 269.827 223.918 279.037C223.64 280.859 220.61 280.405 220.728 278.605C221.07 273.401 221.315 268.224 221.079 263.009C220.842 257.792 220.352 252.598 219.623 247.427C219.01 243.075 218.095 238.777 217.286 234.46L217.159 233.778C216.481 230.106 215.782 226.438 215.085 222.77L214.043 217.277C212.482 209.053 210.89 200.821 209.091 192.649L208.984 192.168C207.224 184.305 204.628 176.069 199.348 169.825C193.989 163.489 186.318 160.298 178.824 157.21ZM159.352 240.609C159.481 240.321 159.932 240.353 160.071 240.609C160.614 241.611 160.674 242.89 160.777 244.022L160.788 244.138C160.918 245.519 161.034 246.905 161.105 248.29C161.239 250.919 161.303 253.544 161.295 256.177C161.286 258.874 161.232 261.569 161.087 264.263L161.047 264.984C160.914 267.325 160.692 269.936 159.58 271.983C159.176 272.727 158.077 272.508 157.843 271.756C157.076 269.292 157.469 266.371 157.666 263.848L157.819 261.879C157.97 259.91 158.114 257.941 158.229 255.969C158.386 253.272 158.515 250.573 158.639 247.875C158.68 246.998 158.723 246.122 158.77 245.245L158.841 243.931C158.901 242.831 158.896 241.625 159.352 240.609ZM73.1241 244.1L73.4636 243.772C74.5057 242.752 75.8227 241.18 77.3634 241.278C77.9778 241.317 78.3693 241.827 78.2419 242.432C77.9698 243.724 76.6517 244.395 75.7029 245.184C74.6634 246.048 73.6838 246.972 72.706 247.905C71.8386 248.732 71.0044 249.582 70.1902 250.459L69.8858 250.79C69.594 251.108 67.5157 252.989 67.7404 253.477L67.7526 253.499C67.8152 253.592 67.711 253.72 67.6073 253.688C66.7098 253.404 66.7658 252.635 67.1051 251.855C67.7571 250.357 68.8988 248.971 69.8957 247.692C70.89 246.415 71.9662 245.227 73.1241 244.1V244.1ZM162.605 206.532C161.911 204.891 159.354 204.926 157.903 205.024C154.248 205.271 150.293 206.196 147.041 207.905C143.67 209.676 141.399 212.515 139.366 215.654L139.271 215.802C137.291 218.882 135.383 222.528 132.282 224.646C130.702 225.725 128.858 226.71 126.941 227.136C126.809 227.368 126.596 227.551 126.317 227.618L126.187 227.647C125.641 227.768 124.793 227.901 124.06 227.822C124.065 228.18 124.061 228.536 124.07 228.875C124.096 229.849 124.107 230.826 124.107 231.8C124.108 233.841 123.998 235.885 124.083 237.926C124.159 239.73 124.413 241.616 125.279 243.229C125.915 244.413 126.753 245.196 127.765 245.944C130.255 244.426 133.071 243.5 135.929 242.805C139.385 241.963 142.923 241.402 146.3 240.261C147.926 239.711 149.489 238.993 150.905 238.016C152.407 236.98 153.555 235.577 154.736 234.205L154.921 233.992C156.126 232.609 157.441 231.286 159.144 230.537C160.611 229.891 162.545 229.776 163.827 228.776C164.498 228.254 164.554 227.495 164.625 226.718C163.803 226.835 162.934 226.647 162.115 226.551L161.691 226.501C160.917 226.409 160.16 226.308 159.398 226.111C159.257 226.075 159.257 225.861 159.398 225.824C160.299 225.592 161.191 225.493 162.115 225.384L162.332 225.357C163.167 225.248 164.045 225.082 164.865 225.266C165.012 224.707 165.224 224.172 165.522 223.637C165.94 222.885 166.731 222.033 166.838 221.155C166.87 220.893 166.809 220.583 166.685 220.352L166.643 220.273C166.591 220.179 166.529 220.085 166.439 220.027C166.429 220.039 166.408 220.052 166.362 220.066C165.732 220.265 165.182 219.956 164.89 219.48C163.65 219.634 162.297 219.582 161.135 219.634L159.96 219.691C158.704 219.748 157.391 219.773 156.211 219.52C156.046 219.484 155.996 219.21 156.161 219.139C157.612 218.519 159.372 218.321 160.925 218.082C161.793 217.949 162.666 217.847 163.536 217.73C164.116 217.652 164.731 217.523 165.331 217.492C166.836 215.618 166.025 212.661 163.93 211.854C163.168 212.19 162.482 211.995 161.648 211.923C160.816 211.852 159.982 211.803 159.147 211.807C157.473 211.814 155.699 212.255 154.041 212.065C153.772 212.034 153.521 211.675 153.789 211.456C155.058 210.42 156.877 210.083 158.487 209.862L158.821 209.817C159.361 209.746 160.018 209.643 160.699 209.582C160.853 209.281 161.129 209.054 161.544 208.997C161.668 208.98 161.792 208.971 161.916 208.96L161.914 208.948V208.948C162.926 208.899 162.882 207.188 162.605 206.532ZM93.2942 238.536C93.2763 238.563 93.2567 238.59 93.2359 238.615L93.2038 238.652L93.3703 238.585L93.2942 238.536V238.536ZM180.271 202.865C176.01 202.407 171.743 202.504 167.469 202.627C167.127 203.745 165.937 204.699 164.784 204.734C165.687 206.109 165.78 207.97 165.147 209.428C166.491 209.963 167.649 210.925 168.353 212.295C169.328 214.193 169.2 216.306 168.236 218.061C169.059 218.805 169.544 220.015 169.495 221.155C169.441 222.426 168.684 223.512 168.054 224.565C167.374 225.703 167.352 226.705 167.143 227.98C166.837 229.846 165.579 230.977 163.96 231.684L164.047 232.023C164.464 233.648 164.983 235.362 166.176 236.55C167.71 238.079 170.09 238.065 172.117 238.161L172.215 238.166C174.071 238.259 175.926 238.368 177.782 238.473L179.173 238.551C181.31 238.668 183.361 238.683 185.105 237.27C187.952 234.963 189.904 231.147 191.14 227.768C193.733 220.676 193.764 212.893 192.574 205.507C188.582 204.219 184.44 203.313 180.271 202.865ZM144.833 214.632L144.865 214.634C145.742 214.734 146.345 215.445 146.56 216.288C146.871 217.513 146.718 218.621 147.469 219.727C148.24 220.865 148.715 221.775 148.827 223.181C148.873 223.759 148.852 224.336 148.981 224.902L149.074 225.298C149.173 225.721 149.254 226.128 149.205 226.582C149.16 226.996 148.958 227.319 148.543 227.452C147.19 227.885 146.146 226.887 145.796 225.626C145.495 224.537 145.898 223.239 145.472 222.216C145.236 221.649 144.801 221.175 144.555 220.604C144.311 220.038 144.189 219.447 144.15 218.832C144.075 217.669 145.104 216.271 144.53 215.217C144.408 214.992 144.546 214.625 144.833 214.632ZM126.865 202.627C127.781 202.441 128.82 202.014 129.723 202.369C130.188 202.551 130.417 203.118 130.025 203.512C129.344 204.195 128.354 204.233 127.436 204.394L127.355 204.408C126.27 204.609 125.184 204.8 124.095 204.98C122.048 205.319 119.996 205.619 117.936 205.874C115.821 206.136 113.7 206.369 111.576 206.545L110.754 206.612C108.959 206.756 107.092 206.864 105.332 206.589C105.076 206.549 105.117 206.176 105.332 206.111C107.261 205.527 109.376 205.37 111.37 205.123C113.49 204.86 115.606 204.582 117.717 204.253C119.824 203.923 121.929 203.57 124.026 203.179C124.974 203.003 125.92 202.819 126.865 202.627ZM159.918 200.752C159.114 200.468 158.23 200.046 157.359 200.187C155.857 200.43 154.52 201.894 153.331 202.859L153.928 202.742C156.983 202.155 161.028 201.522 163.592 203.465C163.599 203.454 163.604 203.443 163.611 203.432C163.819 203.117 164.058 202.872 164.32 202.603C164.345 202.579 164.369 202.555 164.393 202.53L164.534 202.38L164.211 202.268C163.519 202.023 162.7 201.707 162.57 201.661L162.561 201.658C161.679 201.359 160.796 201.064 159.918 200.752ZM134.819 136.697C134.694 135.08 137.21 135.093 137.335 136.697C137.607 140.199 136.819 143.668 135.123 146.739C135.111 146.761 135.097 146.781 135.084 146.802C136.144 147.354 137.217 147.884 138.313 148.357C139.716 148.963 141.145 149.514 142.6 149.982C143.915 150.406 145.537 150.573 146.643 151.454C148.975 153.313 148.099 157.169 147.65 159.669L147.58 160.063C147.357 161.349 147.195 162.669 147.737 163.904C148.316 165.222 149.487 166.2 150.531 167.144L150.742 167.335C151.667 168.178 152.724 169.203 153.403 170.346C154.022 169.065 154.867 168.018 155.76 166.839C156.397 165.998 155.943 165.72 155.486 164.899C155.045 164.108 154.83 163.265 154.968 162.362C155.222 160.696 156.553 159.493 157.878 158.588C159.443 157.521 161.19 156.73 162.807 155.737C166.131 153.696 169.369 151.363 172.285 148.772C172.366 148.701 172.505 148.795 172.441 148.892C170.137 152.398 167.435 155.427 164.115 157.999C162.769 159.041 161.355 159.906 159.931 160.815L159.522 161.078C158.95 161.448 158.237 161.944 157.979 162.574C157.719 163.209 158.273 163.687 158.572 164.213C159.52 165.881 159.062 167.438 157.939 168.853L157.886 168.918C156.769 170.295 155.923 171.575 155.518 173.334C154.649 177.113 155.86 181.048 157.128 184.595L157.178 184.735C157.864 186.647 158.593 188.545 159.189 190.487L159.353 191.024C159.893 192.812 160.335 194.574 159.73 196.412C159.524 197.037 158.672 197.185 158.318 196.596C157.069 194.522 156.758 192.026 155.976 189.746C155.213 187.523 154.337 185.341 153.601 183.109C152.652 180.236 152.017 177.143 152.362 174.129C152.352 174.111 152.34 174.095 152.332 174.076L152.09 173.548C151.432 172.117 150.796 170.868 149.599 169.727C148.35 168.537 146.994 167.484 146.011 166.044C143.876 162.916 145.197 159.436 145.454 156.016L145.484 155.596C145.531 154.886 145.556 153.921 145.093 153.429C144.571 152.876 143.348 152.735 142.656 152.49C140.867 151.857 139.104 151.119 137.426 150.233C135.828 149.39 134.28 148.458 132.838 147.367L132.108 146.817C130.955 145.947 129.76 144.997 128.988 143.812C128.899 143.676 129.05 143.456 129.211 143.521C130.501 144.045 131.679 144.878 132.886 145.602C132.905 145.558 132.926 145.513 132.951 145.469C134.444 142.766 135.058 139.771 134.819 136.697ZM176.013 155.215C176.527 153.805 178.869 153.914 178.775 155.589C178.704 156.876 178.157 158.037 177.658 159.205L177.605 159.33C177.089 160.547 176.494 161.69 175.782 162.806C174.42 164.938 172.826 166.917 171.123 168.785C169.579 170.478 167.553 171.514 165.217 171.342C164.234 171.269 163.24 171.019 162.378 170.527C161.354 169.943 160.242 168.189 158.936 168.614C158.809 168.655 158.691 168.47 158.801 168.382C160.309 167.167 162.021 169.051 163.465 169.505C165.641 170.189 167.874 169.433 169.274 167.673C170.736 165.836 172.082 163.779 173.311 161.778C173.935 160.762 174.504 159.708 174.996 158.622C175.492 157.525 175.605 156.333 176.013 155.215ZM172.506 146.541C172.442 146.346 172.684 146.161 172.855 146.272C173.846 146.917 174.705 147.77 175.619 148.518C176.633 149.347 177.655 150.159 178.692 150.959C180.205 152.126 178.451 154.273 177.119 152.999C175.297 151.256 173.302 148.977 172.506 146.541ZM167.064 139.718C167.467 138.165 169.848 138.806 169.501 140.341L169.49 140.387C168.833 142.923 169.769 145.504 171.767 147.148L171.841 147.208C173.105 148.22 171.314 149.989 170.062 148.987C167.329 146.799 166.193 143.082 167.064 139.718Z" fill="black"/>
<path fill-rule="evenodd" clip-rule="evenodd" d="M187.566 90.274C186.783 84.0136 184.325 77.3667 181.74 71.5303C175.927 59.1904 162.618 57.4914 150.688 54.9472C138.914 53.2289 126.448 51.6774 114.852 55.1057C108.333 56.7067 105.787 64.4899 106.816 70.6319C107.403 74.4593 109.141 78.0816 110.623 81.6287C113.568 88.9131 115.437 96.7117 115.44 104.598C115.238 109.752 114.512 115.635 120.42 117.818C126.042 120.621 126.517 128.219 133.557 132.529C136.403 138.309 144.157 138.818 149.738 140.159C153.265 140.836 156.832 141.334 160.409 141.656C170.766 142.986 179.051 139.977 184.472 130.728C188.101 125.099 190.802 118.6 190.135 111.778C189.47 104.594 188.363 97.4481 187.566 90.274Z" fill="#D08B5B"/>
<path fill-rule="evenodd" clip-rule="evenodd" d="M150.777 39.9501C151.368 39.2784 152.279 39.5088 152.832 40.0399C153.192 40.1462 153.54 40.3043 153.87 40.5136C154.614 40.4178 155.394 40.4178 156.124 40.4447C156.301 40.3451 156.491 40.2565 156.697 40.1805C158.173 39.6396 159.48 39.9144 160.558 40.6385C161.077 40.146 161.732 39.837 162.57 39.8837C163.317 39.9256 163.849 40.2781 164.306 40.7424C164.761 40.0845 165.497 39.6151 166.413 39.5498C167.695 39.4585 168.926 39.9736 169.947 40.771C170.542 40.087 171.353 39.6939 172.256 39.6901C172.851 39.5819 173.478 39.6246 174.045 39.7962C174.868 40.0454 175.591 40.5123 176.166 41.1182C177.077 40.2441 178.191 39.6151 179.477 39.7068C181.14 39.8273 182.519 41.0533 183.16 42.5624C184.285 43.0145 185.325 43.6593 186.193 44.5787C186.24 44.6271 186.284 44.6778 186.33 44.7287C186.798 44.9018 187.239 45.1472 187.627 45.4703C188.856 46.4956 189.13 47.9793 188.723 49.4332C188.78 49.6659 188.829 49.9026 188.873 50.1391C190.024 50.3145 191.07 50.9805 191.664 52.0647C192.478 53.5526 192.318 55.5137 191.437 56.9342C191.058 57.5452 190.577 58.0601 190.037 58.5102C190.647 59.9009 190.354 61.5604 189.37 62.6852C189.13 63.0731 188.835 63.4231 188.504 63.7399C188.87 65.1777 188.219 66.6612 186.92 67.4294L186.809 67.7081C186.791 67.7545 186.772 67.8006 186.752 67.8462C186.738 67.9054 186.72 67.9627 186.703 68.0204C186.672 68.5306 186.504 69.0313 186.171 69.503C185.49 70.4698 184.646 71.1002 184.198 72.2288L184.153 72.3473C183.961 72.8814 183.34 73.2583 182.81 73.0934C185.75 79.1467 187.292 85.8822 188.35 92.4831C188.878 95.7762 189.285 99.0806 189.615 102.398L189.939 105.701C190.224 108.637 190.478 111.583 190.479 114.529C190.484 121.193 188.582 127.603 184.501 132.906C180.64 137.919 175.178 141.552 169.007 142.983C162.636 144.458 155.163 143.877 149.449 140.5C147.765 139.507 149.241 137.118 150.955 137.917C154.199 139.431 157.496 140.555 161.093 140.806C164.599 141.054 168.113 140.614 171.438 139.464C176.938 137.56 181.619 133.572 184.627 128.605C186.109 126.158 187.182 123.501 187.753 120.694C188.465 117.196 188.358 113.58 188.096 110.036L188.078 109.795C187.562 102.968 186.881 96.0993 185.78 89.3405C184.807 83.3638 183.312 77.5081 181.37 71.782C180.609 71.1107 179.758 70.5553 178.848 70.1334C172.18 69.8542 165.5 69.9358 158.841 70.397C153.162 70.7929 147.511 71.4626 141.902 72.4388L141.301 72.5445C140.059 72.7662 138.68 72.893 137.51 73.3942C136.507 73.8253 136.1 74.6538 135.847 75.6723C135.21 78.2487 135.113 81.0683 135.006 83.7102C134.9 86.2927 135.139 88.8967 134.932 91.4707C134.757 93.6244 134.207 95.8288 132.615 97.3866C131.782 98.2022 130.758 98.6482 129.796 99.2674C129.175 99.6671 128.911 100.079 128.991 100.819C129.164 102.438 130.465 104.477 129.004 105.864C128.747 106.107 128.302 106.138 128.049 105.864C127.446 105.207 126.613 104.705 125.898 104.175C125.599 103.955 125.848 103.528 126.187 103.68C126.634 103.881 127.089 104.118 127.555 104.325C126.527 103.476 125.063 103.059 123.845 102.812C123.231 102.689 122.586 102.653 121.948 102.711C121.475 102.936 120.993 103.146 120.51 103.351C119.896 103.609 119.276 103.843 118.652 104.065C116.487 105.834 115.454 108.711 115.905 111.524C116.152 113.077 116.867 114.766 118.214 115.673C119.81 116.746 121.948 116.285 123.672 117.082C125.287 117.828 126.269 119.335 127.005 120.895L127.312 121.545C127.995 122.982 128.697 124.382 129.63 125.69C130.709 127.206 132.031 128.567 133.473 129.736C134.173 130.302 134.918 130.811 135.689 131.274L135.9 131.399C136.68 131.858 137.238 132.295 137.291 133.265C137.308 133.603 137.095 133.912 136.821 134.087C135.64 134.838 134.466 133.899 133.484 133.244C132.423 132.538 131.409 131.744 130.471 130.877C128.688 129.233 127.144 127.28 125.957 125.16C125.053 123.545 124.539 121.273 123.109 120.022C122.236 119.259 121.003 119.253 119.913 119.113C118.899 118.982 117.94 118.771 117.037 118.27C113.367 116.226 112.33 111.279 113.201 107.455C113.348 106.811 113.555 106.183 113.81 105.578C112.444 105.807 110.909 104.391 111.463 102.962C111.506 102.854 111.554 102.753 111.6 102.649C110.7 102.055 109.99 101.155 109.652 99.9776C109.48 99.3689 109.454 98.7539 109.545 98.16C109.108 97.8664 108.748 97.4625 108.516 96.9658C107.791 96.6298 107.148 96.127 106.764 95.4084C106.233 94.417 106.3 93.5039 106.705 92.6818C106.648 92.5784 106.593 92.4727 106.541 92.3647C105.054 91.4202 104.017 89.7926 104.135 87.9877C104.173 87.3896 104.321 86.8506 104.548 86.3647C104.529 86.3034 104.51 86.2398 104.494 86.1785C103.25 85.5445 102.221 84.5027 101.854 83.112C101.487 81.7127 101.919 80.3178 102.784 79.2441C101.519 78.3165 100.758 77.0209 101.22 75.0615C101.407 74.2649 101.785 73.5398 102.295 72.929C102.293 72.9102 102.288 72.8911 102.284 72.8719L102.166 72.7799C100.604 71.5446 99.7066 69.9703 100.665 68.0341C101.095 67.1635 101.709 66.5568 102.43 66.1573L102.465 66.0432V66.0432C101.949 64.9336 101.774 63.7014 102.13 62.4058C102.421 61.3387 103.111 60.4889 103.992 59.9248C103.933 59.4469 103.941 58.9378 104.036 58.386C104.194 57.4541 104.656 56.6404 105.331 56.0634C105.356 55.9406 105.387 55.8204 105.423 55.6997C105.651 54.9623 106.077 54.1613 106.57 53.5672C106.977 53.0747 107.432 52.8951 107.989 52.8761C107.955 52.4219 107.978 51.9609 108.071 51.4938C108.356 50.0526 109.271 48.6977 110.626 48.0826C111.183 47.8311 111.769 47.7574 112.334 47.8185C112.815 46.804 113.753 46.0687 114.906 45.9102C115.355 45.8468 115.773 45.8508 116.156 45.9081C116.373 45.8064 116.599 45.7157 116.835 45.6331C116.991 45.5781 117.149 45.5274 117.307 45.4769C117.841 44.8133 118.543 44.2826 119.363 43.9636C120.309 43.5938 121.273 43.6316 122.127 43.9423L122.399 43.8852V43.8852C122.825 43.1455 123.503 42.5727 124.547 42.3128C125.732 42.019 126.948 42.429 127.88 43.1753C127.884 43.1753 127.888 43.1753 127.895 43.173C128.382 42.0803 129.215 41.3194 130.612 41.3723C131.483 41.4061 132.269 41.8396 132.877 42.4567C133.214 42.4142 133.551 42.3762 133.891 42.3383C134.249 41.9176 134.647 41.5247 135.088 41.1717C135.809 40.5924 136.747 40.6391 137.279 41.4547C137.394 41.6322 137.502 41.8119 137.609 41.9915L138.096 41.9577V41.9577C138.67 41.1821 139.452 40.6579 140.523 40.6158C141.505 40.5755 142.205 41.0576 142.739 41.7316C143.173 41.721 143.609 41.7128 144.046 41.7062C144.554 41.1165 145.153 40.5966 145.836 40.1655C146.359 39.8358 147.13 39.948 147.554 40.3876C147.84 40.6864 148.107 40.9984 148.354 41.3213C148.993 40.6036 149.856 40.1308 150.777 39.9501ZM119.749 107.064C120.733 106.502 122.057 107.111 123.01 107.588C124.172 108.17 125.325 109.047 126.035 110.146C127.003 111.642 124.728 112.851 123.71 111.509C123.084 110.683 122.584 109.85 121.825 109.127C121.132 108.463 120.126 108.02 119.728 107.145C119.713 107.115 119.717 107.081 119.749 107.064ZM120.44 70.7436L120.459 70.6908C120.739 69.9229 119.517 69.592 119.239 70.3535C118.818 71.5077 119.303 72.7624 120.441 73.2608C120.756 73.399 121.116 73.351 121.306 73.0334C121.465 72.766 121.391 72.3027 121.079 72.166C120.439 71.8855 120.225 71.3904 120.44 70.7436V70.7436ZM109.914 68.5965C110.525 68.0555 109.628 67.1612 109.019 67.7C108.451 68.2026 108.03 68.8852 108.139 69.6704C108.251 70.4706 108.853 71.0355 109.512 71.4347C110.21 71.8581 110.846 70.762 110.15 70.3397L110.072 70.2918C109.779 70.1098 109.437 69.8595 109.388 69.5015C109.335 69.1211 109.656 68.8241 109.914 68.5965ZM113.385 59.0494L113.429 59.0175C114.086 58.5474 113.455 57.4471 112.79 57.9225C112.181 58.3585 111.692 58.9249 111.641 59.7061C111.591 60.4652 111.976 61.1234 112.48 61.6575C113.041 62.2516 113.934 61.3537 113.374 60.7609C112.829 60.1831 112.723 59.5526 113.385 59.0494V59.0494Z" fill="black"/>
<path fill-rule="evenodd" clip-rule="evenodd" d="M170.397 123.094C170.721 122.53 171.467 122.008 172.15 122.088C175.209 122.447 175.203 126.157 174.022 128.323C172.975 130.243 170.808 131.371 168.638 131.206C166.359 131.033 164.418 129.692 163.563 127.56C162.998 126.149 162.737 123.545 164.24 122.597C164.268 122.579 164.314 122.583 164.336 122.609C165.057 123.448 165.085 124.707 165.716 125.641C166.303 126.51 167.215 127.227 168.283 127.338C169.081 127.421 169.888 127.133 170.2 126.416C170.369 126.029 170.35 125.818 170.286 125.552L170.229 125.32C170.029 124.508 169.939 123.89 170.397 123.094ZM171.214 106.823C172.81 107.793 175.241 110.055 173.524 112.46C171.504 114.581 168.595 112.149 167.162 111.05C165.833 110.198 164.34 112.389 165.573 113.384C175.93 121.055 180.133 107.077 172.021 105.682C171.128 105.529 170.796 106.523 171.214 106.823ZM154.367 100.171C155.346 98.701 157.582 98.9175 158.121 100.662C158.413 101.606 158.01 102.455 158.031 103.399C158.048 104.196 157.996 105.084 157.752 105.856C157.195 107.616 155.612 108.859 153.74 108.808C151.874 108.756 150.231 107.575 149.45 105.911C148.665 104.241 148.831 102.512 149.404 100.813C149.431 100.732 149.538 100.692 149.603 100.761C150.279 101.481 150.775 102.24 151.288 103.046L151.813 103.872C152.214 104.493 152.798 105.288 153.548 105.238L153.66 105.227C153.868 105.209 153.836 105.25 153.997 104.966C154.071 104.835 154.058 104.59 154.094 104.435L154.106 104.383V104.383L154.1 104.355C154.084 104.279 154.068 104.138 154.055 103.892L154.052 103.838C153.998 102.689 153.673 101.212 154.367 100.171ZM179.189 101.149C179.014 99.2695 181.656 98.8521 182.534 100.243C182.992 100.968 183.125 101.879 183.227 102.743L183.274 103.152C183.378 104.039 183.419 104.961 183.034 105.788C182.428 107.091 181.111 107.779 179.689 107.67C178.332 107.566 177.093 106.779 176.441 105.584C175.859 104.517 175.28 102.435 175.987 101.323C176.029 101.255 176.115 101.246 176.173 101.298C176.841 101.892 176.95 102.974 177.347 103.747C177.757 104.544 178.378 105.321 179.32 105.442C180.221 105.558 180.565 105.066 180.335 104.206C180.039 103.097 179.301 102.343 179.189 101.149ZM155.081 88.9953L155.513 88.8297C156.993 88.2704 159.025 87.6238 160.229 88.8279C160.971 89.5704 161.112 90.6641 160.582 91.5702C159.94 92.6677 158.789 92.6947 157.677 92.8564C156.412 93.0403 155.125 93.3899 153.948 93.8882C152.621 94.4498 151.39 95.1498 150.184 95.9316C149.038 96.6745 147.895 97.8887 146.523 98.1176C146.467 98.1269 146.404 98.1028 146.389 98.0413C146.077 96.6992 146.943 95.3785 147.716 94.3314C148.651 93.0638 149.784 92.0233 151.051 91.0904C152.273 90.1898 153.669 89.5391 155.081 88.9953ZM181.968 93.7668L182.1 93.7437C182.998 93.5942 183.811 93.6286 184.488 94.3398C185.004 94.8823 185.203 95.5855 184.957 96.3028C184.73 96.9646 184.222 97.6369 183.485 97.7755C180.996 98.2439 178.24 98.1665 175.739 97.8119C174.595 97.6495 173.44 97.4509 172.325 97.1377L171.813 96.989C170.882 96.7231 169.817 96.4453 169.141 95.7607C168.898 95.5147 169.038 95.1626 169.329 95.0487C170.508 94.5867 172.125 94.8325 173.382 94.7963C174.845 94.7545 176.31 94.6448 177.766 94.4937C179.189 94.3457 180.565 94.0243 181.968 93.7668Z" fill="black"/>
<path fill-rule="evenodd" clip-rule="evenodd" d="M152.393 128.556C154.103 124.547 157.836 121.601 162.134 120.524C165.291 119.735 168.603 119.76 171.821 120.073C173.507 120.236 175.315 120.369 176.904 120.996C178.26 121.531 179.366 122.542 180.197 123.729C181.187 125.136 181.86 126.746 182.332 128.396C182.399 128.631 182.462 128.867 182.521 129.105C182.316 130.35 181.879 131.41 180.727 132.193C179.602 132.957 178.259 133.27 176.921 133.381C176.79 133.318 176.663 133.253 176.547 133.187C174.462 131.992 172.994 129.17 170.362 129.552C168.014 129.893 166.468 132.85 165.071 134.583C160.587 135.106 156.107 133.758 152.459 131.194C152.274 130.316 152.263 129.43 152.393 128.556M185.569 125.515C185.21 124.508 184.758 123.533 184.223 122.614C182.453 119.576 179.735 117.155 176.509 115.772C168.878 112.503 159.003 114.807 152.84 120.168C150.735 122.001 148.607 124.694 147.963 127.591C147.771 127.629 147.589 127.729 147.44 127.87C142.987 125.065 138.402 122.367 134.814 118.48C132.208 115.655 130.396 112.312 129.286 108.639C129.195 108.337 128.708 108.381 128.723 108.716C128.727 108.794 128.731 108.872 128.735 108.95C128.689 108.806 128.469 108.88 128.452 109.02C127.855 113.482 127.108 118.213 127.796 122.699C128.208 125.375 129.423 127.334 131.048 129.45C132.788 131.718 134.759 133.827 136.774 135.85C138.052 137.134 139.388 138.615 140.953 139.557C142.774 140.651 144.84 141.482 146.783 142.326C148.76 143.188 150.766 143.983 152.811 144.673C156.898 146.057 161.122 147.013 165.42 147.432C168.861 147.766 172.794 148.13 176.091 146.835C178.619 145.843 180.659 144.049 182.277 141.891C184.039 139.54 185.432 136.863 186.202 134.039C187.002 131.106 185.737 125.987 185.569 125.515" fill="black"/>
</g>
<defs>
<clipPath id="clip0_3_19659">
<rect width="280" height="280" fill="white"/>
</clipPath>
</defs>
</svg>
